<svg width="120" height="34" viewBox="0 0 120 34" fill="none" xmlns="http://www.w3.org/2000/svg">
<path fill-rule="evenodd" clip-rule="evenodd" d="M16.9757 5.73176H27.207V0.157304H0V5.73176H10.0937H16.9757ZM10.0937 8.36684V33.5582H16.9757V8.36684H10.0937Z" fill="#EA526F"/>
<path fill-rule="evenodd" clip-rule="evenodd" d="M38.0348 21.3311H40.7761L38.4084 15.7566H38.0348V5.73176H43.5634C45.4139 5.73176 46.7826 6.18292 47.6697 7.08523C48.572 7.98755 49.0231 9.22632 49.0231 10.8015C49.0231 12.3462 48.549 13.562 47.6008 14.449C46.6526 15.3208 45.3145 15.7566 43.5863 15.7566H40.6893L49.7802 33.5582H57.1669V33.237L49.9407 19.5876C51.9442 18.6853 53.4353 17.4771 54.4141 15.9631C55.4081 14.4337 55.9052 12.5297 55.9052 10.251C55.9052 7.03935 54.8346 4.55417 52.6936 2.79542C50.5525 1.03668 47.5091 0.157304 43.5634 0.157304H31.1527V33.5582H38.0348V21.3311Z" fill="#EA526F"/>
<path fill-rule="evenodd" clip-rule="evenodd" d="M70.0481 26.6761H80.0153L82.3322 33.5582H89.6502L77.8357 1.99514L74.8834 11.3519L78.1571 21.1017H71.807L70.0481 26.6761ZM65.6547 33.5582H58.3368L70.7704 0.157304H76.744L65.6547 33.5582Z" fill="#EA526F"/>
<path fill-rule="evenodd" clip-rule="evenodd" d="M99.6521 24.0151L103.231 20.1611L111.81 33.5582H120L107.796 14.9996L119.656 0.157304H111.191L92.77 24.4001V33.5582H99.6521V24.0151ZM99.6521 10.8327V0.157304H92.77V19.6092L99.6521 10.8327Z" fill="#EA526F"/>
</svg>
